Coordinates
version=1
nRows=14
nColumns=36
inDegrees=yes

Units are S.I. units (second, meters, Newtons, ...)
If the header above contains a line with 'inDegrees', this indicates whether rotational values are in degrees (yes) or radians (no).

endheader
time	pelvis_tilt	pelvis_list	pelvis_rotation	pelvis_tx	pelvis_ty	pelvis_tz	hip_flexion_r	hip_adduction_r	hip_rotation_r	knee_angle_r	knee_angle_r_beta	ankle_angle_r	subtalar_angle_r	mtp_angle_r	hip_flexion_l	hip_adduction_l	hip_rotation_l	knee_angle_l	knee_angle_l_beta	ankle_angle_l	subtalar_angle_l	mtp_angle_l	lumbar_extension	lumbar_bending	lumbar_rotation	arm_flex_r	arm_add_r	arm_rot_r	elbow_flex_r	pro_sup_r	arm_flex_l	arm_add_l	arm_rot_l	elbow_flex_l	pro_sup_l
      3.68333330	      5.10348696	     -3.67910648	     11.09203190	      0.77265484	      0.75237093	     -0.10323671	     27.49062539	      3.66469201	      4.28080695	     71.40868557	      1.24631668	     41.69179704	    -10.99380672	     -7.49999987	     32.28276252	    -11.46176204	      9.74790688	     76.13101649	      1.32873690	     39.66357857	     -1.00145505	     -7.49999987	    -34.63827001	      5.58996827	     -2.34847990	     17.95136931	     -8.44107053	     14.82325635	     26.70044062	     82.55053014	     38.01102058	    -13.77315569	     28.32363170	     41.11350446	     67.34350654
      3.70000000	      7.10930113	     -2.82352357	     10.08046973	      0.77181012	      0.75652332	     -0.10609356	     24.51251619	      3.06199755	      5.43785565	     70.75442965	      1.23489776	     41.51154349	    -10.25530924	     -7.49999987	     28.12383698	    -11.17946717	      8.20923324	     74.80083343	      1.30552083	     40.15166297	     -1.42883535	     -7.49999987	    -38.16214328	      5.20314727	     -1.62215892	     19.35596752	     -8.60079267	     20.04292692	     24.12111412	     72.18852599	     36.14809480	    -13.89351324	     32.41598947	     35.19746651	     62.41079046
      3.71666670	      7.94140865	     -2.28953770	      9.32598911	      0.76033942	      0.75668677	     -0.10615874	     23.86660360	      2.32475895	      6.02005421	     70.57177253	      1.23170979	     41.26532210	     -9.39296509	     -7.49999987	     26.97727607	    -10.61959597	      7.19818223	     74.33045885	      1.29731124	     40.30040802	     -2.11194989	     -7.49999987	    -40.90104941	      4.68311919	     -0.89543908	     20.61058036	     -8.64922898	     23.30611465	     22.74327598	     69.13894937	     35.18437361	    -13.80300631	     39.04709722	     29.41347725	     58.05786348
      3.73333330	      8.18351097	     -1.81519163	      9.06585500	      0.74987151	      0.76174648	     -0.10244991	     24.30394291	      1.59926777	      6.20866999	     70.46214784	      1.22979648	     40.88286857	     -8.39750033	     -7.49999987	     27.02341749	    -10.21787776	      6.55152371	     73.47953522	      1.28245982	     40.07711501	     -1.95179551	     -7.49999987	    -43.17923008	      3.97865871	     -0.65213581	     22.04927362	     -8.30476951	     26.39108089	     21.71527941	     69.15541692	     34.69788634	    -13.82178411	     45.34772588	     24.13617131	     57.28517758
      3.75000000	      7.97171073	     -1.55080661	      9.48603675	      0.74084252	      0.76164996	     -0.10431177	     25.14529145	      0.73055427	      5.70173653	     70.17130477	      1.22472031	     41.07379293	     -6.98756273	     -7.49999987	     28.39801907	     -9.85699431	      6.50294196	     73.47537300	      1.28238718	     39.35901066	     -1.67207709	     -7.49999987	    -44.59067283	      3.65563860	     -1.23077856	     23.02653365	     -7.53372786	     26.69228972	     21.77300079	     68.79583634	     32.70371783	    -14.12317319	     46.95051670	     21.39426127	     56.91836435
      3.76666670	      8.56025894	     -1.26015783	      9.28459497	      0.75257703	      0.77009134	     -0.11375935	     23.48604107	     -0.12536806	      5.65283244	     68.26761953	      1.19149473	     40.83825152	     -5.91940253	     -7.49999987	     27.19220278	     -9.64783946	      5.76898826	     72.55988869	      1.26640896	     38.52713013	     -1.41717938	     -7.49999987	    -45.13956299	      3.22212232	     -1.39470728	     23.12699489	     -7.57627287	     31.62936546	     21.11943712	     64.57674355	     30.58892264	    -13.91666569	     61.55586225	     17.12220875	     41.24783260
      3.78333330	      8.28141012	     -1.05921535	      9.36779437	      0.74713798	      0.77064562	     -0.11562684	     22.94780004	     -1.18292901	      5.19160253	     66.55049906	      1.16152533	     40.69450325	     -4.79650514	     -7.49999987	     27.19666076	     -9.17035786	      5.35232202	     71.89884406	      1.25487156	     37.79225911	     -1.68893494	     -7.49999987	    -44.74979684	      3.00546311	     -2.08188757	     23.17572259	     -7.30696520	     32.64563232	     21.36204332	     65.11030412	     27.01035771	    -13.94896452	     63.49175239	     15.09111684	     41.14776655
      3.80000000	      8.29074935	     -1.12094800	      9.14436110	      0.75050413	      0.77881286	     -0.12089929	     21.48392835	     -1.91486326	      4.81160884	     64.00631567	      1.11712095	     40.19327044	     -3.75027114	     -7.49999987	     26.08813736	     -9.00866284	      4.83085035	     70.43513829	      1.22932507	     37.14872769	     -1.49850959	     -7.49999987	    -43.69795774	      3.15545344	     -2.39505986	     22.46478373	     -7.37100391	     32.92445667	     21.71818067	     65.22336232	     22.38139704	    -13.71420764	     64.31803690	     14.04197030	     41.10242234
      3.81666670	      8.16600549	     -0.91434712	      9.30026769	      0.74812216	      0.79121273	     -0.12367720	     19.79623808	     -2.92172519	      4.15038861	     60.89426449	      1.06280541	     39.22333549	     -2.68433280	     -7.49999987	     24.81187866	     -8.33328207	      4.40519254	     67.95895188	      1.18610747	     36.09002687	     -1.67458316	     -7.49999987	    -42.55338123	      3.16721027	     -2.83002441	     21.81818652	     -7.68108355	     33.58904220	     22.12933264	     65.53166678	     18.47691859	    -13.37351894	     65.34196054	     12.91854618	     40.90001631
      3.83333330	      7.76814563	     -0.87879254	      9.33803230	      0.74923660	      0.79961643	     -0.12557338	     18.48746527	     -3.62128925	      3.53172593	     57.78856277	      1.00860069	     38.07590311	     -1.72246786	     -7.49999987	     23.82470696	     -7.99446637	      4.14928449	     65.61213742	      1.14514783	     34.76533077	     -1.86568898	     -7.49999987	    -40.74823698	      3.20176200	     -3.01097092	     21.25160791	     -8.14057334	     35.81436723	     22.05077507	     66.59772561	     14.60655614	    -13.04554813	     68.43961381	     12.30702344	     38.79258430
      3.85000000	      6.64544574	     -1.09996850	      9.52776506	      0.74214905	      0.80590629	     -0.12749885	     18.15331980	     -4.01800703	      2.85843750	     54.49750756	      0.95116094	     36.86889859	     -1.05188963	     -7.49999987	     24.21929851	     -7.59223177	      4.19336478	     63.43465386	      1.10714357	     33.45244982	     -2.26580419	     -7.49999987	    -38.46917685	      3.45538491	     -3.18205491	     20.60437830	     -8.66600009	     35.71875567	     22.90816985	     66.51378236	     10.69059823	    -12.61706503	     68.99118973	     12.22776342	     38.86687766
      3.86666670	      5.32168877	     -1.28794544	      9.62484712	      0.73933741	      0.81472631	     -0.13066860	     18.07867768	     -4.44447294	      2.41038298	     51.11106734	      0.89205641	     35.22416309	     -0.19959105	     -7.49999987	     24.80950159	     -7.08813969	      4.25959629	     61.04244077	      1.06539157	     31.77647903	     -2.43581128	     -7.49999987	    -35.94729350	      3.59040495	     -3.29954622	     20.12648011	     -9.19746525	     35.84111793	     23.59245590	     66.58817352	      7.24365853	    -12.04637422	     69.52997517	     12.15199771	     38.77615672
      3.88333330	      3.75351718	     -1.42875294	     10.03388470	      0.73712801	      0.82762506	     -0.13283690	     17.93655272	     -4.81368059	      1.98495886	     47.14358029	      0.82281070	     33.39423110	      0.00551413	     -7.49999987	     25.19501459	     -6.31555096	      4.67071747	     57.71206452	      1.00726554	     29.96232850	     -2.90472555	     -7.49999987	    -33.16374457	      3.74899092	     -3.76798718	     19.52550908	     -9.68992198	     36.08126849	     24.91551603	     66.76487198	      4.00533371	    -11.63608336	     70.19767054	     12.23977477	     38.54511671
      3.90000000	      2.82855790	     -1.44523986	     10.35265899	      0.73952803	      0.84437801	     -0.13511242	     16.64941081	     -5.16487157	      1.39523283	     42.48379849	      0.74148216	     30.41099887	      0.34127352	     -7.49999987	     24.27786004	     -5.73347214	      4.75495673	     53.61854679	      0.93582018	     27.21534528	     -3.38275524	     -7.49999987	    -30.82034928	      3.90623306	     -4.04429527	     18.80928790	     -9.98680325	     36.36805068	     25.65155486	     66.93502273	      1.72188133	    -11.53340604	     70.83869907	     12.79665149	     38.28716125
